<svg data-v-423bf9ae="" xmlns="http://www.w3.org/2000/svg" viewBox="0 0 502.5832237233371 163" class="iconAbove"><!----><!----><!----><g data-v-423bf9ae="" id="eda2fd2f-a1b2-493f-a2e3-a0987ef8a0d8" fill="#000000" transform="matrix(6.054490506946714,0,0,6.054490506946714,-0.9687156396451542,100.45711382643252)"><path d="M8.40 2.12L5.28 2.12L5.28 10.19L3.27 10.19L3.27 2.12L0.16 2.12L0.16 0.56L8.40 0.56L8.40 2.12ZM18.60 5.33L18.60 5.33L18.60 5.33Q18.60 6.46 18.27 7.38L18.27 7.38L18.27 7.38Q17.93 8.31 17.30 8.96L17.30 8.96L17.30 8.96Q16.67 9.62 15.77 9.97L15.77 9.97L15.77 9.97Q14.86 10.33 13.72 10.33L13.72 10.33L13.72 10.33Q12.51 10.33 11.60 9.96L11.60 9.96L11.60 9.96Q10.70 9.58 10.09 8.92L10.09 8.92L10.09 8.92Q9.48 8.25 9.18 7.33L9.18 7.33L9.18 7.33Q8.87 6.42 8.87 5.33L8.87 5.33L8.87 5.33Q8.87 4.20 9.19 3.29L9.19 3.29L9.19 3.29Q9.51 2.39 10.13 1.75L10.13 1.75L10.13 1.75Q10.75 1.11 11.65 0.76L11.65 0.76L11.65 0.76Q12.56 0.42 13.73 0.42L13.73 0.42L13.73 0.42Q14.91 0.42 15.81 0.77L15.81 0.77L15.81 0.77Q16.72 1.11 17.34 1.76L17.34 1.76L17.34 1.76Q17.96 2.40 18.28 3.31L18.28 3.31L18.28 3.31Q18.60 4.21 18.60 5.33ZM16.54 5.33L16.54 5.33L16.54 5.33Q16.54 4.57 16.36 3.96L16.36 3.96L16.36 3.96Q16.18 3.35 15.83 2.91L15.83 2.91L15.83 2.91Q15.47 2.47 14.95 2.24L14.95 2.24L14.95 2.24Q14.42 2.00 13.73 2.00L13.73 2.00L13.73 2.00Q13.03 2.00 12.50 2.24L12.50 2.24L12.50 2.24Q11.97 2.47 11.61 2.91L11.61 2.91L11.61 2.91Q11.26 3.35 11.08 3.96L11.08 3.96L11.08 3.96Q10.90 4.57 10.90 5.33L10.90 5.33L10.90 5.33Q10.90 6.08 11.08 6.71L11.08 6.71L11.08 6.71Q11.27 7.33 11.62 7.79L11.62 7.79L11.62 7.79Q11.98 8.24 12.50 8.49L12.50 8.49L12.50 8.49Q13.03 8.74 13.72 8.74L13.72 8.74L13.72 8.74Q14.46 8.74 14.99 8.49L14.99 8.49L14.99 8.49Q15.52 8.23 15.87 7.78L15.87 7.78L15.87 7.78Q16.21 7.32 16.38 6.70L16.38 6.70L16.38 6.70Q16.54 6.07 16.54 5.33ZM28.05 3.61L28.05 3.61L28.05 3.61Q28.05 4.23 27.84 4.81L27.84 4.81L27.84 4.81Q27.63 5.39 27.20 5.83L27.20 5.83L27.20 5.83Q26.77 6.28 26.11 6.54L26.11 6.54L26.11 6.54Q25.44 6.80 24.53 6.80L24.53 6.80L22.14 6.80L22.14 10.19L20.13 10.19L20.13 0.56L24.45 0.56L24.45 0.56Q25.38 0.56 26.05 0.78L26.05 0.78L26.05 0.78Q26.73 1.00 27.17 1.41L27.17 1.41L27.17 1.41Q27.62 1.81 27.83 2.37L27.83 2.37L27.83 2.37Q28.05 2.93 28.05 3.61ZM26.02 3.64L26.02 3.64L26.02 3.64Q26.02 2.90 25.57 2.51L25.57 2.51L25.57 2.51Q25.12 2.13 24.23 2.13L24.23 2.13L22.14 2.13L22.14 5.25L24.28 5.25L24.28 5.25Q24.73 5.25 25.06 5.13L25.06 5.13L25.06 5.13Q25.38 5.02 25.60 4.81L25.60 4.81L25.60 4.81Q25.81 4.59 25.92 4.30L25.92 4.30L25.92 4.30Q26.02 4.00 26.02 3.64ZM37.32 7.42L37.32 7.42L37.32 7.42Q37.32 8.07 37.08 8.61L37.08 8.61L37.08 8.61Q36.84 9.15 36.34 9.53L36.34 9.53L36.34 9.53Q35.83 9.91 35.05 10.12L35.05 10.12L35.05 10.12Q34.27 10.33 33.19 10.33L33.19 10.33L33.19 10.33Q32.23 10.33 31.50 10.16L31.50 10.16L31.50 10.16Q30.77 9.99 30.25 9.65L30.25 9.65L30.25 9.65Q29.72 9.32 29.40 8.82L29.40 8.82L29.40 8.82Q29.07 8.33 28.93 7.68L28.93 7.68L30.88 7.36L30.88 7.36Q30.96 7.68 31.12 7.95L31.12 7.95L31.12 7.95Q31.27 8.22 31.55 8.41L31.55 8.41L31.55 8.41Q31.83 8.61 32.24 8.71L32.24 8.71L32.24 8.71Q32.66 8.82 33.24 8.82L33.24 8.82L33.24 8.82Q34.27 8.82 34.81 8.51L34.81 8.51L34.81 8.51Q35.36 8.20 35.36 7.53L35.36 7.53L35.36 7.53Q35.36 7.14 35.14 6.88L35.14 6.88L35.14 6.88Q34.92 6.63 34.56 6.47L34.56 6.47L34.56 6.47Q34.19 6.30 33.72 6.19L33.72 6.19L33.72 6.19Q33.25 6.08 32.74 5.98L32.74 5.98L32.74 5.98Q32.33 5.89 31.92 5.78L31.92 5.78L31.92 5.78Q31.51 5.68 31.13 5.54L31.13 5.54L31.13 5.54Q30.76 5.39 30.44 5.20L30.44 5.20L30.44 5.20Q30.12 5.00 29.88 4.71L29.88 4.71L29.88 4.71Q29.65 4.42 29.51 4.03L29.51 4.03L29.51 4.03Q29.38 3.64 29.38 3.11L29.38 3.11L29.38 3.11Q29.38 2.39 29.67 1.88L29.67 1.88L29.67 1.88Q29.96 1.37 30.46 1.04L30.46 1.04L30.46 1.04Q30.97 0.72 31.68 0.57L31.68 0.57L31.68 0.57Q32.38 0.42 33.22 0.42L33.22 0.42L33.22 0.42Q34.16 0.42 34.83 0.56L34.83 0.56L34.83 0.56Q35.51 0.71 35.96 1.01L35.96 1.01L35.96 1.01Q36.42 1.31 36.68 1.77L36.68 1.77L36.68 1.77Q36.94 2.22 37.06 2.83L37.06 2.83L35.11 3.10L35.11 3.10Q34.96 2.47 34.50 2.16L34.50 2.16L34.50 2.16Q34.04 1.85 33.17 1.85L33.17 1.85L33.17 1.85Q32.64 1.85 32.29 1.94L32.29 1.94L32.29 1.94Q31.94 2.03 31.73 2.19L31.73 2.19L31.73 2.19Q31.52 2.34 31.43 2.55L31.43 2.55L31.43 2.55Q31.34 2.76 31.34 2.99L31.34 2.99L31.34 2.99Q31.34 3.35 31.51 3.58L31.51 3.58L31.51 3.58Q31.68 3.81 31.99 3.96L31.99 3.96L31.99 3.96Q32.30 4.12 32.73 4.22L32.73 4.22L32.73 4.22Q33.15 4.33 33.67 4.44L33.67 4.44L33.67 4.44Q34.12 4.53 34.56 4.64L34.56 4.64L34.56 4.64Q35.01 4.74 35.41 4.89L35.41 4.89L35.41 4.89Q35.81 5.03 36.16 5.24L36.16 5.24L36.16 5.24Q36.51 5.44 36.77 5.74L36.77 5.74L36.77 5.74Q37.02 6.04 37.17 6.45L37.17 6.45L37.17 6.45Q37.32 6.86 37.32 7.42ZM43.30 8.74L43.30 8.74L43.30 8.74Q43.87 8.74 44.28 8.58L44.28 8.58L44.28 8.58Q44.69 8.42 45.00 8.16L45.00 8.16L45.00 8.16Q45.30 7.90 45.50 7.57L45.50 7.57L45.50 7.57Q45.71 7.25 45.83 6.91L45.83 6.91L47.59 7.57L47.59 7.57Q47.38 8.09 47.04 8.59L47.04 8.59L47.04 8.59Q46.70 9.09 46.18 9.47L46.18 9.47L46.18 9.47Q45.67 9.86 44.96 10.09L44.96 10.09L44.96 10.09Q44.26 10.33 43.30 10.33L43.30 10.33L43.30 10.33Q42.05 10.33 41.13 9.96L41.13 9.96L41.13 9.96Q40.22 9.58 39.62 8.92L39.62 8.92L39.62 8.92Q39.02 8.25 38.73 7.33L38.73 7.33L38.73 7.33Q38.44 6.42 38.44 5.33L38.44 5.33L38.44 5.33Q38.44 4.20 38.73 3.29L38.73 3.29L38.73 3.29Q39.02 2.39 39.61 1.75L39.61 1.75L39.61 1.75Q40.20 1.11 41.09 0.76L41.09 0.76L41.09 0.76Q41.99 0.42 43.21 0.42L43.21 0.42L43.21 0.42Q44.15 0.42 44.86 0.62L44.86 0.62L44.86 0.62Q45.57 0.81 46.08 1.17L46.08 1.17L46.08 1.17Q46.60 1.53 46.94 2.02L46.94 2.02L46.94 2.02Q47.28 2.51 47.47 3.10L47.47 3.10L45.69 3.58L45.69 3.58Q45.60 3.27 45.40 2.99L45.40 2.99L45.40 2.99Q45.20 2.71 44.90 2.49L44.90 2.49L44.90 2.49Q44.59 2.27 44.18 2.14L44.18 2.14L44.18 2.14Q43.77 2.00 43.25 2.00L43.25 2.00L43.25 2.00Q42.52 2.00 41.99 2.24L41.99 2.24L41.99 2.24Q41.47 2.47 41.13 2.91L41.13 2.91L41.13 2.91Q40.79 3.35 40.63 3.96L40.63 3.96L40.63 3.96Q40.47 4.57 40.47 5.33L40.47 5.33L40.47 5.33Q40.47 6.08 40.63 6.71L40.63 6.71L40.63 6.71Q40.79 7.33 41.13 7.79L41.13 7.79L41.13 7.79Q41.47 8.24 42.01 8.49L42.01 8.49L42.01 8.49Q42.55 8.74 43.30 8.74ZM58.28 5.33L58.28 5.33L58.28 5.33Q58.28 6.46 57.94 7.38L57.94 7.38L57.94 7.38Q57.61 8.31 56.98 8.96L56.98 8.96L56.98 8.96Q56.35 9.62 55.44 9.97L55.44 9.97L55.44 9.97Q54.54 10.33 53.40 10.33L53.40 10.33L53.40 10.33Q52.19 10.33 51.28 9.96L51.28 9.96L51.28 9.96Q50.37 9.58 49.77 8.92L49.77 8.92L49.77 8.92Q49.16 8.25 48.85 7.33L48.85 7.33L48.85 7.33Q48.55 6.42 48.55 5.33L48.55 5.33L48.55 5.33Q48.55 4.20 48.87 3.29L48.87 3.29L48.87 3.29Q49.18 2.39 49.80 1.75L49.80 1.75L49.80 1.75Q50.42 1.11 51.33 0.76L51.33 0.76L51.33 0.76Q52.23 0.42 53.41 0.42L53.41 0.42L53.41 0.42Q54.58 0.42 55.49 0.77L55.49 0.77L55.49 0.77Q56.40 1.11 57.02 1.76L57.02 1.76L57.02 1.76Q57.63 2.40 57.96 3.31L57.96 3.31L57.96 3.31Q58.28 4.21 58.28 5.33ZM56.22 5.33L56.22 5.33L56.22 5.33Q56.22 4.57 56.04 3.96L56.04 3.96L56.04 3.96Q55.86 3.35 55.50 2.91L55.50 2.91L55.50 2.91Q55.15 2.47 54.62 2.24L54.62 2.24L54.62 2.24Q54.10 2.00 53.41 2.00L53.41 2.00L53.41 2.00Q52.71 2.00 52.18 2.24L52.18 2.24L52.18 2.24Q51.65 2.47 51.29 2.91L51.29 2.91L51.29 2.91Q50.93 3.35 50.76 3.96L50.76 3.96L50.76 3.96Q50.58 4.57 50.58 5.33L50.58 5.33L50.58 5.33Q50.58 6.08 50.76 6.71L50.76 6.71L50.76 6.71Q50.94 7.33 51.30 7.79L51.30 7.79L51.30 7.79Q51.65 8.24 52.18 8.49L52.18 8.49L52.18 8.49Q52.71 8.74 53.40 8.74L53.40 8.74L53.40 8.74Q54.13 8.74 54.67 8.49L54.67 8.49L54.67 8.49Q55.20 8.23 55.55 7.78L55.55 7.78L55.55 7.78Q55.89 7.32 56.05 6.70L56.05 6.70L56.05 6.70Q56.22 6.07 56.22 5.33ZM68.69 10.19L66.42 10.19L64.18 6.54L61.82 6.54L61.82 10.19L59.80 10.19L59.80 0.56L64.61 0.56L64.61 0.56Q65.52 0.56 66.19 0.76L66.19 0.76L66.19 0.76Q66.86 0.96 67.31 1.34L67.31 1.34L67.31 1.34Q67.76 1.71 67.99 2.24L67.99 2.24L67.99 2.24Q68.21 2.77 68.21 3.43L68.21 3.43L68.21 3.43Q68.21 3.97 68.05 4.42L68.05 4.42L68.05 4.42Q67.89 4.87 67.60 5.22L67.60 5.22L67.60 5.22Q67.32 5.56 66.93 5.80L66.93 5.80L66.93 5.80Q66.54 6.04 66.08 6.15L66.08 6.15L68.69 10.19ZM66.18 3.51L66.18 3.51L66.18 3.51Q66.18 2.81 65.72 2.47L65.72 2.47L65.72 2.47Q65.26 2.13 64.40 2.13L64.40 2.13L61.82 2.13L61.82 4.97L64.46 4.97L64.46 4.97Q64.91 4.97 65.23 4.86L65.23 4.86L65.23 4.86Q65.56 4.76 65.77 4.56L65.77 4.56L65.77 4.56Q65.97 4.37 66.08 4.10L66.08 4.10L66.08 4.10Q66.18 3.83 66.18 3.51ZM71.93 10.19L69.91 10.19L69.91 0.56L71.93 0.56L71.93 10.19ZM83.17 5.33L83.17 5.33L83.17 5.33Q83.17 6.46 82.83 7.38L82.83 7.38L82.83 7.38Q82.50 8.31 81.87 8.96L81.87 8.96L81.87 8.96Q81.24 9.62 80.33 9.97L80.33 9.97L80.33 9.97Q79.43 10.33 78.29 10.33L78.29 10.33L78.29 10.33Q77.08 10.33 76.17 9.96L76.17 9.96L76.17 9.96Q75.26 9.58 74.66 8.92L74.66 8.92L74.66 8.92Q74.05 8.25 73.74 7.33L73.74 7.33L73.74 7.33Q73.44 6.42 73.44 5.33L73.44 5.33L73.44 5.33Q73.44 4.20 73.76 3.29L73.76 3.29L73.76 3.29Q74.07 2.39 74.69 1.75L74.69 1.75L74.69 1.75Q75.31 1.11 76.22 0.76L76.22 0.76L76.22 0.76Q77.12 0.42 78.30 0.42L78.30 0.42L78.30 0.42Q79.47 0.42 80.38 0.77L80.38 0.77L80.38 0.77Q81.29 1.11 81.90 1.76L81.90 1.76L81.90 1.76Q82.52 2.40 82.84 3.31L82.84 3.31L82.84 3.31Q83.17 4.21 83.17 5.33ZM81.11 5.33L81.11 5.33L81.11 5.33Q81.11 4.57 80.93 3.96L80.93 3.96L80.93 3.96Q80.75 3.35 80.39 2.91L80.39 2.91L80.39 2.91Q80.04 2.47 79.51 2.24L79.51 2.24L79.51 2.24Q78.99 2.00 78.30 2.00L78.30 2.00L78.30 2.00Q77.59 2.00 77.06 2.24L77.06 2.24L77.06 2.24Q76.54 2.47 76.18 2.91L76.18 2.91L76.18 2.91Q75.82 3.35 75.65 3.96L75.65 3.96L75.65 3.96Q75.47 4.57 75.47 5.33L75.47 5.33L75.47 5.33Q75.47 6.08 75.65 6.71L75.65 6.71L75.65 6.71Q75.83 7.33 76.19 7.79L76.19 7.79L76.19 7.79Q76.54 8.24 77.07 8.49L77.07 8.49L77.07 8.49Q77.59 8.74 78.29 8.74L78.29 8.74L78.29 8.74Q79.02 8.74 79.56 8.49L79.56 8.49L79.56 8.49Q80.09 8.23 80.44 7.78L80.44 7.78L80.44 7.78Q80.78 7.32 80.94 6.70L80.94 6.70L80.94 6.70Q81.11 6.07 81.11 5.33Z"></path></g><defs data-v-423bf9ae=""><linearGradient data-v-423bf9ae="" gradientTransform="rotate(25)" id="22cb5257-00b5-4907-98e4-53984ad21981" x1="0%" y1="0%" x2="100%" y2="0%"><stop data-v-423bf9ae="" offset="0%" style="stop-color: rgb(30, 11, 54); stop-opacity: 1;"></stop><stop data-v-423bf9ae="" offset="100%" style="stop-color: rgb(202, 55, 130); stop-opacity: 1;"></stop></linearGradient></defs><g data-v-423bf9ae="" id="24036a0e-7d6d-44a7-a840-c4c51cba538a" transform="matrix(2.8125,0,0,2.8125,206.8300018310547,0)" stroke="none" fill="url(#22cb5257-00b5-4907-98e4-53984ad21981)"><path d="M2.83 18.247l26.34-9.124L2.83 0zM29.17 32V13.753L2.83 22.877z"></path></g><!----></svg>